# xmcd
#
# Track frame offsets:
#	150
#	10702
#	23285
#	34342
#	45913
#	58232
#	71258
#	82061
#	93201
#	104017
#	114910
#	124809
#	140037
#	152074
#	162195
#
# Disc length: 2345
#
# Revision: 3
# Processed by: cddbd v1.5.1PL0 Copyright (c) Steve Scherf et al.
# Submitted via: audiograbber 1.80.04
# Normalized: r1:DSETVAR1,TDELIM( - ),TSWAP
#
DISCID=b909270f
DTITLE=Various Artist - Classic Country, 1965 - 1969, CD-1
DYEAR=1900
DGENRE=Country Classic
TTITLE0=George Jones - Walk Through This World With Me
TTITLE1=Johnny Cash - Jackson
TTITLE2=Statler Brothers - Flowers On The Wall
TTITLE3=Roger Miller - King Of The Road
TTITLE4=Merle Haggard - Okie From Muskogee
TTITLE5=Kenny Rogers and The First Edition - Ruby, Don't Take Your Love To Town
TTITLE6=Johnny Cash - Daddy Sang Bass
TTITLE7=Elvis Presley - Crying In The Chapel
TTITLE8=Effy Arnold - Make The World Go Away
TTITLE9=Waylon Jennings - Only Daddy That'll Walk The Line
TTITLE10=Loretta Lynn - Don't Come Home A Drinkin' (With Lovin' On Your Mind
TTITLE11=Merle Haggard - Harper Valley P.T.A.
TTITLE12=Henson Cargill - Skip A Rope
TTITLE13=Merle Haggard - Mama Tried
TTITLE14=Glen Cambell - Wichita Lineman
EXTD=
EXTT0=
EXTT1=
EXTT2=
EXTT3=
EXTT4=
EXTT5=
EXTT6=
EXTT7=
EXTT8=
EXTT9=
EXTT10=
EXTT11=
EXTT12=
EXTT13=
EXTT14=
PLAYORDER=
